<?xml version="1.0" encoding="utf-8"?>
<!-- Generator: Adobe Illustrator 24.0.2, SVG Export Plug-In . SVG Version: 6.00 Build 0)  -->
<svg version="1.1" id="Layer_1" xmlns="http://www.w3.org/2000/svg" xmlns:xlink="http://www.w3.org/1999/xlink" x="0px" y="0px"
	 viewBox="0 0 32 32" style="enable-background:new 0 0 32 32;" xml:space="preserve">
<style type="text/css">
	.st0{fill:#FFFFFF;}
</style>
<path class="st0" d="M4,18h19.2l-4.62,4.62C18.19,23.01,18,23.48,18,24c0,0.98,0.81,2,2,2c0.53,0,0.99-0.19,1.38-0.58l7.96-7.96
	C29.67,17.13,30,16.73,30,16s-0.28-1.08-0.65-1.45l-7.97-7.97C20.99,6.19,20.53,6,20,6c-1.19,0-2,1.02-2,2
	c0,0.52,0.19,0.99,0.58,1.38L23.2,14H4c-1.1,0-2,0.9-2,2S2.9,18,4,18z"/>
</svg>
