<?xml version="1.0" encoding="utf-8"?>
<!-- Generator: Adobe Illustrator 24.0.2, SVG Export Plug-In . SVG Version: 6.00 Build 0)  -->
<svg version="1.1" id="Layer_1" xmlns="http://www.w3.org/2000/svg" xmlns:xlink="http://www.w3.org/1999/xlink" x="0px" y="0px"
	 viewBox="0 0 1792 1792" style="enable-background:new 0 0 1792 1792;" xml:space="preserve">
<style type="text/css">
	.st0{fill:#FFFFFF;}
</style>
<path class="st0" d="M1412,734c0-18.67-6-34-18-46l-91-90c-12.67-12.67-27.67-19-45-19s-32.33,6.33-45,19l-408,407L579,779
	c-12.67-12.67-27.67-19-45-19s-32.33,6.33-45,19l-91,90c-12,12-18,27.33-18,46c0,18,6,33,18,45l362,362c12.67,12.67,27.67,19,45,19
	c18,0,33.33-6.33,46-19l543-543C1406,767,1412,752,1412,734z M1664,896c0,139.33-34.33,267.83-103,385.5s-161.83,210.83-279.5,279.5
	s-246.17,103-385.5,103s-267.83-34.33-385.5-103S299.67,1399.17,231,1281.5S128,1035.33,128,896s34.33-267.83,103-385.5
	S392.83,299.67,510.5,231S756.67,128,896,128s267.83,34.33,385.5,103s210.83,161.83,279.5,279.5S1664,756.67,1664,896z"/>
</svg>
