<?xml version="1.0" encoding="utf-8"?>
<!-- Generator: Adobe Illustrator 24.0.2, SVG Export Plug-In . SVG Version: 6.00 Build 0)  -->
<svg version="1.1" id="Layer_1" xmlns="http://www.w3.org/2000/svg" xmlns:xlink="http://www.w3.org/1999/xlink" x="0px" y="0px"
	 viewBox="0 0 448 512" style="enable-background:new 0 0 448 512;" xml:space="preserve">
<style type="text/css">
	.st0{fill:#FFFFFF;}
</style>
<path class="st0" d="M433.94,65.94l-51.88-51.88c-9-9-21.21-14.06-33.94-14.06H176c-26.51,0-48,21.49-48,48v48H48
	c-26.51,0-48,21.49-48,48v320c0,26.51,21.49,48,48,48h224c26.51,0,48-21.49,48-48v-48h80c26.51,0,48-21.49,48-48V99.88
	C448,87.15,442.94,74.94,433.94,65.94z M266,464H54c-3.31,0-6-2.69-6-6V150c0-3.31,2.69-6,6-6h74v224c0,26.51,21.49,48,48,48h96v42
	C272,461.31,269.31,464,266,464z M394,368H182c-3.31,0-6-2.69-6-6V54c0-3.31,2.69-6,6-6h106v88c0,13.26,10.74,24,24,24h88v202
	C400,365.31,397.31,368,394,368z M400,112h-64V48h9.63c1.59,0,3.12,0.63,4.24,1.76l48.37,48.37c1.13,1.13,1.76,2.65,1.76,4.24V112z"
	/>
</svg>
